{
	"asset":{
		"generator":"Khronos glTF Blender I/O v3.5.30",
		"version":"2.0"
	},
	"extensionsUsed":[
		"KHR_materials_emissive_strength",
		"KHR_materials_specular",
		"KHR_materials_ior"
	],
	"scene":0,
	"scenes":[
		{
			"name":"Scene",
			"nodes":[
				0
			]
		}
	],
	"nodes":[
		{
			"mesh":0,
			"name":"Sphere",
			"scale":[
				1,
				0.169107586145401,
				1
			]
		}
	],
	"materials":[
		{
			"doubleSided":true,
			"emissiveFactor":[
				1,
				1,
				1
			],
			"extensions":{
				"KHR_materials_emissive_strength":{
					"emissiveStrength":2
				},
				"KHR_materials_specular":{
					"specularColorFactor":[
						0,
						0,
						0
					]
				},
				"KHR_materials_ior":{
					"ior":1.4500000476837158
				}
			},
			"name":"Material.005",
			"pbrMetallicRoughness":{
				"metallicFactor":0,
				"roughnessFactor":0.5
			}
		},
		{
			"doubleSided":true,
			"extensions":{
				"KHR_materials_specular":{
					"specularColorFactor":[
						1.7785182108310484,
						1.7785182108310484,
						1.7785182108310484
					]
				},
				"KHR_materials_ior":{
					"ior":1.4500000476837158
				}
			},
			"name":"Material.006",
			"pbrMetallicRoughness":{
				"baseColorFactor":[
					0.6559259295463562,
					0.6559259295463562,
					0.6559259295463562,
					1
				],
				"roughnessFactor":0.190476194024086
			}
		},
		{
			"doubleSided":true,
			"extensions":{
				"KHR_materials_specular":{
					"specularColorFactor":[
						2.371357614441398,
						2.371357614441398,
						2.371357614441398
					]
				},
				"KHR_materials_ior":{
					"ior":1.4500000476837158
				}
			},
			"name":"Material.007",
			"pbrMetallicRoughness":{
				"baseColorFactor":[
					0.014787145890295506,
					0.022398320958018303,
					0.10857576876878738,
					1
				],
				"metallicFactor":0,
				"roughnessFactor":0.2023809552192688
			}
		}
	],
	"meshes":[
		{
			"name":"Sphere",
			"primitives":[
				{
					"attributes":{
						"POSITION":0,
						"TEXCOORD_0":1,
						"NORMAL":2
					},
					"indices":3,
					"material":0
				},
				{
					"attributes":{
						"POSITION":4,
						"TEXCOORD_0":5,
						"NORMAL":6
					},
					"indices":7,
					"material":1
				},
				{
					"attributes":{
						"POSITION":8,
						"TEXCOORD_0":9,
						"NORMAL":10
					},
					"indices":11,
					"material":2
				}
			]
		}
	],
	"accessors":[
		{
			"bufferView":0,
			"componentType":5126,
			"count":739,
			"max":[
				0.9633749127388,
				1.8412083387374878,
				0.9633749127388
			],
			"min":[
				-0.9633747935295105,
				0.032375723123550415,
				-0.9633749127388
			],
			"type":"VEC3"
		},
		{
			"bufferView":1,
			"componentType":5126,
			"count":739,
			"type":"VEC2"
		},
		{
			"bufferView":2,
			"componentType":5126,
			"count":739,
			"type":"VEC3"
		},
		{
			"bufferView":3,
			"componentType":5123,
			"count":2352,
			"type":"SCALAR"
		},
		{
			"bufferView":4,
			"componentType":5126,
			"count":2684,
			"max":[
				0.9931880235671997,
				2.0200328826904297,
				0.9931879043579102
			],
			"min":[
				-0.9931878447532654,
				-1.3436464071273804,
				-0.9931881427764893
			],
			"type":"VEC3"
		},
		{
			"bufferView":5,
			"componentType":5126,
			"count":2684,
			"type":"VEC2"
		},
		{
			"bufferView":6,
			"componentType":5126,
			"count":2684,
			"type":"VEC3"
		},
		{
			"bufferView":7,
			"componentType":5123,
			"count":14244,
			"type":"SCALAR"
		},
		{
			"bufferView":8,
			"componentType":5126,
			"count":1300,
			"max":[
				1.0077415704727173,
				2.083852767944336,
				1.0077416896820068
			],
			"min":[
				-1.0077416896820068,
				-1.5226538181304932,
				-1.0077415704727173
			],
			"type":"VEC3"
		},
		{
			"bufferView":9,
			"componentType":5126,
			"count":1300,
			"type":"VEC2"
		},
		{
			"bufferView":10,
			"componentType":5126,
			"count":1300,
			"type":"VEC3"
		},
		{
			"bufferView":11,
			"componentType":5123,
			"count":5760,
			"type":"SCALAR"
		}
	],
	"bufferViews":[
		{
			"buffer":0,
			"byteLength":8868,
			"byteOffset":0,
			"target":34962
		},
		{
			"buffer":0,
			"byteLength":5912,
			"byteOffset":8868,
			"target":34962
		},
		{
			"buffer":0,
			"byteLength":8868,
			"byteOffset":14780,
			"target":34962
		},
		{
			"buffer":0,
			"byteLength":4704,
			"byteOffset":23648,
			"target":34963
		},
		{
			"buffer":0,
			"byteLength":32208,
			"byteOffset":28352,
			"target":34962
		},
		{
			"buffer":0,
			"byteLength":21472,
			"byteOffset":60560,
			"target":34962
		},
		{
			"buffer":0,
			"byteLength":32208,
			"byteOffset":82032,
			"target":34962
		},
		{
			"buffer":0,
			"byteLength":28488,
			"byteOffset":114240,
			"target":34963
		},
		{
			"buffer":0,
			"byteLength":15600,
			"byteOffset":142728,
			"target":34962
		},
		{
			"buffer":0,
			"byteLength":10400,
			"byteOffset":158328,
			"target":34962
		},
		{
			"buffer":0,
			"byteLength":15600,
			"byteOffset":168728,
			"target":34962
		},
		{
			"buffer":0,
			"byteLength":11520,
			"byteOffset":184328,
			"target":34963
		}
	],
	"buffers":[
		{
			"byteLength":195848,
			"uri":"UFO.bin"
		}
	]
}
